<svg width="96" height="34" viewBox="0 0 96 34" fill="none" xmlns="http://www.w3.org/2000/svg">
<path d="M10.5895 33.9862C7.72911 33.8732 5.38887 33.0955 3.559 31.6508C3.20978 31.3749 2.37761 30.5474 2.09844 30.1984C1.3564 29.2712 0.851903 28.3688 0.515408 27.3676C-0.520012 24.2856 0.0128773 20.2413 2.03966 15.8028C3.775 12.0029 6.45271 8.23407 11.1244 3.01434C11.8125 2.24627 13.8618 0 13.8751 0C13.88 0 13.7683 0.192255 13.6277 0.426385C12.413 2.44827 11.3737 4.82985 10.8075 6.89166C9.89793 10.2 10.0076 13.0391 11.1288 15.2406C11.9022 16.7573 13.2281 18.071 14.719 18.7972C17.3291 20.068 21.1505 20.1732 25.8173 19.1048C26.1386 19.0308 42.0598 14.8308 61.1981 9.77118C80.3363 4.71109 95.9975 0.574344 96 0.577751C96.0054 0.582131 51.5364 19.4917 28.4519 29.3018C24.796 30.855 23.8184 31.2473 22.0997 31.847C17.7062 33.3802 13.7707 34.1118 10.5895 33.9862Z" fill="black"/>
</svg>
