<svg width="56" height="20" viewBox="0 0 56 20" fill="none" xmlns="http://www.w3.org/2000/svg">
<path d="M6.17722 19.9919C4.50865 19.9254 3.14351 19.4679 2.07608 18.6181C1.87237 18.4558 1.38694 17.9691 1.22409 17.7638C0.791231 17.2183 0.496943 16.6875 0.300655 16.0986C-0.30334 14.2856 0.00751176 11.9066 1.1898 9.29575C2.20209 7.0605 3.76408 4.84357 6.48922 1.77314C6.89064 1.32134 8.08607 0 8.09379 0C8.09667 0 8.0315 0.113091 7.9495 0.250815C7.24093 1.44016 6.63465 2.84109 6.30436 4.05392C5.77379 5.99999 5.83779 7.67007 6.49179 8.96506C6.94293 9.85721 7.71636 10.63 8.58607 11.0572C10.1086 11.8047 12.3378 11.8666 15.0601 11.2381C15.2475 11.1946 24.5349 8.72399 35.6989 5.74775C46.8629 2.77123 55.9986 0.337849 56 0.339853C56.0032 0.34243 30.0629 11.4657 16.5969 17.2364C14.4643 18.15 13.8941 18.3808 12.8915 18.7335C10.3286 19.6354 8.03293 20.0657 6.17722 19.9919Z" fill="#FAFAFA"/>
</svg>
